<?xml version="1.0" encoding="utf-8"?>
<!-- Generator: Adobe Illustrator 21.0.2, SVG Export Plug-In . SVG Version: 6.00 Build 0)  -->
<svg version="1.1" id="Layer_1" xmlns="http://www.w3.org/2000/svg" xmlns:xlink="http://www.w3.org/1999/xlink" x="0px" y="0px"
	 viewBox="0 0 50.1 50.1" style="enable-background:new 0 0 50.1 50.1;" xml:space="preserve">
<style type="text/css">
	.st0{fill:#581422;}
	.st1{fill:#FFFFFF;}
</style>
<g>
	<path class="st0" d="M10.5,35.8c9.7,0,19.4,0,29.1,0c0-7.2,0-14.4,0-21.6c-9.7,0-19.4,0-29.1,0C10.5,21.4,10.5,28.6,10.5,35.8z
		 M36.2,17.1c-3.7,3.1-7.4,6.1-11.1,9.2c-3.7-3.1-7.4-6.1-11.1-9.2C21.3,17.1,28.8,17.1,36.2,17.1z M13.5,20.3
		c0.4,0.4,0.9,0.7,1.3,1.1c3.4,2.8,6.7,5.6,10.1,8.4c0.2,0.2,0.3,0.2,0.5,0c3.8-3,7.5-6.1,11.2-9.2c0.1,0,0.2-0.1,0.3-0.2
		c0,4.3,0,8.4,0,12.4c-7.8,0-15.6,0-23.4,0C13.5,28.7,13.5,24.5,13.5,20.3z"/>
	<path class="st1" d="M36.2,17.1c-7.4,0-14.8,0-22.2,0c3.7,3.1,7.4,6.1,11.1,9.2C28.8,23.2,32.5,20.2,36.2,17.1z"/>
	<path class="st1" d="M36.8,20.4c-0.1,0.1-0.2,0.2-0.3,0.2c-3.7,3.1-7.4,6.2-11.2,9.2c-0.2,0.2-0.3,0.2-0.5,0
		c-3.4-2.8-6.7-5.6-10.1-8.4c-0.4-0.4-0.9-0.7-1.3-1.1c0,4.2,0,8.4,0,12.5c7.8,0,15.6,0,23.4,0C36.8,28.8,36.8,24.7,36.8,20.4z"/>
	<path class="st1" d="M25,0C11.3,0,0,11.2,0,25c0,13.8,11.2,25,25,25s25-11.2,25-25C50,11.2,38.8,0,25,0z M39.7,35.8
		c-9.7,0-19.4,0-29.1,0c0-7.2,0-14.4,0-21.6c9.7,0,19.4,0,29.1,0C39.7,21.4,39.7,28.6,39.7,35.8z"/>
</g>
</svg>
