<svg id="Layer_1" data-name="Layer 1" xmlns="http://www.w3.org/2000/svg" viewBox="0 0 460 460" height="25px"><defs><style>.cls-1{fill:#fff;}</style></defs><title>Icons</title><path d="M229.73-.28C102.43.06-.43,103.09-.28,230.12-.13,357.3,102.88,460.26,230,460.26s230.13-103,230.27-230.16S356.79-.62,229.73-.28Z"/><g id="nBFFYy.tif"><path class="cls-1" d="M96.15,331.06V128.2H364.94c0,.38,0,.77,0,1.15q0,100.2,0,200.41V331H97.3C96.92,331,96.54,331,96.15,331.06Zm238.4-183.95H128.2c.37.39.62.67.88.94l8,8.07q42.57,43.1,85.17,86.18a12.72,12.72,0,0,0,3.56,2.52,13.28,13.28,0,0,0,14.45-2.62Q286.9,195,333.71,148C334,147.75,334.19,147.5,334.56,147.11ZM128.09,312.18h205L265.55,243a10.44,10.44,0,0,1-.78,1c-4,4-7.92,8-11.91,12-11.62,11.57-31.88,11.53-43.51,0-4.42-4.38-8.95-8.66-13.49-13.06ZM115,298.73l68-69.42L115,160.5ZM346.21,162l-67.32,67.79,67.32,68.91Z"/></g></svg>