<?xml version="1.0" encoding="utf-8"?>
<!-- Generator: Adobe Illustrator 21.0.2, SVG Export Plug-In . SVG Version: 6.00 Build 0)  -->
<svg version="1.1" id="Layer_1" xmlns="http://www.w3.org/2000/svg" xmlns:xlink="http://www.w3.org/1999/xlink" x="0px" y="0px"
	 viewBox="0 0 460 460" height="50px" style="enable-background:new 0 0 460 460;" xml:space="preserve">
<g>
	<path d="M137.1,156.1c28.4,28.7,56.8,57.5,85.2,86.2c1,1,2.2,1.9,3.6,2.5c4.9,2.1,10.6,1.1,14.5-2.6c31.1-31.5,62.2-62.9,93.5-94.2
		c0.3-0.2,0.5-0.5,0.8-0.9h0H128.2c0.4,0.4,0.6,0.7,0.9,0.9L137.1,156.1z"/>
	<polygon points="346.2,298.7 346.2,162 278.9,229.8 	"/>
	<path d="M264.8,244c-4,4-7.9,8-11.9,12c-11.6,11.6-31.9,11.5-43.5,0c-4.4-4.4-8.9-8.7-13.5-13.1l-67.8,69.2h205L265.5,243
		C265.3,243.3,265.1,243.7,264.8,244z"/>
	<path d="M229.7-0.3C102.4,0.1-0.4,103.1-0.3,230.1C-0.1,357.3,102.9,460.3,230,460.3s230.1-103,230.3-230.2S356.8-0.6,229.7-0.3z
		 M364.9,129.3c0,66.8,0,133.6,0,200.4v1.2H97.3c-0.4,0-0.8,0-1.1,0.1V128.2h268.8C364.9,128.6,364.9,129,364.9,129.3z"/>
	<polygon points="115,160.5 115,298.7 183,229.3 	"/>
</g>
</svg>
